<svg id="wave" style="transform:rotate(0deg); transition: 0.3s" viewBox="0 0 1440 280" version="1.1" xmlns="http://www.w3.org/2000/svg"><defs><linearGradient id="sw-gradient-0" x1="0" x2="0" y1="1" y2="0"><stop stop-color="rgba(0, 0, 0, 1)" offset="0%"></stop><stop stop-color="rgba(0, 0, 0, 1)" offset="100%"></stop></linearGradient></defs><path style="transform:translate(0, 0px); opacity:1" fill="url(#sw-gradient-0)" d="M0,252L60,224C120,196,240,140,360,135.3C480,131,600,177,720,196C840,215,960,205,1080,182C1200,159,1320,121,1440,88.7C1560,56,1680,28,1800,23.3C1920,19,2040,37,2160,70C2280,103,2400,149,2520,182C2640,215,2760,233,2880,210C3000,187,3120,121,3240,121.3C3360,121,3480,187,3600,177.3C3720,168,3840,84,3960,46.7C4080,9,4200,19,4320,46.7C4440,75,4560,121,4680,116.7C4800,112,4920,56,5040,51.3C5160,47,5280,93,5400,126C5520,159,5640,177,5760,177.3C5880,177,6000,159,6120,149.3C6240,140,6360,140,6480,158.7C6600,177,6720,215,6840,233.3C6960,252,7080,252,7200,210C7320,168,7440,84,7560,42C7680,0,7800,0,7920,42C8040,84,8160,168,8280,196C8400,224,8520,196,8580,182L8640,168L8640,280L8580,280C8520,280,8400,280,8280,280C8160,280,8040,280,7920,280C7800,280,7680,280,7560,280C7440,280,7320,280,7200,280C7080,280,6960,280,6840,280C6720,280,6600,280,6480,280C6360,280,6240,280,6120,280C6000,280,5880,280,5760,280C5640,280,5520,280,5400,280C5280,280,5160,280,5040,280C4920,280,4800,280,4680,280C4560,280,4440,280,4320,280C4200,280,4080,280,3960,280C3840,280,3720,280,3600,280C3480,280,3360,280,3240,280C3120,280,3000,280,2880,280C2760,280,2640,280,2520,280C2400,280,2280,280,2160,280C2040,280,1920,280,1800,280C1680,280,1560,280,1440,280C1320,280,1200,280,1080,280C960,280,840,280,720,280C600,280,480,280,360,280C240,280,120,280,60,280L0,280Z"></path></svg>